<svg width="200" height="125" viewBox="0 0 200 125" fill="none" xmlns="http://www.w3.org/2000/svg">
<mask id="mask0_1829_172" style="mask-type:luminance" maskUnits="userSpaceOnUse" x="26" y="44" width="147" height="36">
<path d="M26.1318 44.7394H172.19V79.9147H26.1318V44.7394Z" fill="white"/>
</mask>
<g mask="url(#mask0_1829_172)">
<path d="M51.3138 52.2775V62.327H33.6874V52.3056H51.3138V44.7394H38.2251C31.5505 44.7394 26.1388 50.137 26.1371 56.7957L26.1318 79.9147H33.6874V69.8651H51.3138V79.9147H58.8695V52.2775H51.3138ZM73.979 72.3766V44.7394H66.4234V67.8549C66.4234 74.5153 71.8351 79.9147 78.5114 79.9147H91.6054V72.3766H73.979ZM124.345 44.7394V72.3766H106.717V44.7394H99.161V67.8549C99.161 74.5153 104.573 79.9147 111.249 79.9147H119.811C126.487 79.9147 131.899 74.5153 131.899 67.8549V44.7394H124.345ZM172.185 56.7957C172.185 50.1388 166.772 44.7394 160.097 44.7394H147.008V52.2775H139.454V79.9147H147.008V52.3056H164.636V79.9147H172.19L172.185 56.7957Z" fill="#334155"/>
</g>
</svg>
