<svg width="200" height="125" viewBox="0 0 200 125" fill="none" xmlns="http://www.w3.org/2000/svg">
<path d="M40.1637 41.5769H44.1348C44.3396 41.5783 44.5045 41.7426 44.5045 41.9448V81.4516C44.5045 81.6539 44.3396 81.8181 44.1348 81.8195H40.1637C39.9589 81.8181 39.794 81.6539 39.794 81.4516V41.9809C39.7789 41.7734 39.9369 41.5928 40.1472 41.5779C40.1525 41.5774 40.1579 41.5769 40.1637 41.5769ZM67.4053 74.1081V75.0973C67.3887 75.7079 67.3024 76.3152 67.1487 76.9065C66.9643 77.7377 66.5536 78.503 65.9605 79.1203C65.3313 79.8591 64.4055 80.4866 63.1075 81.0384C61.8095 81.5903 60.1047 81.8499 57.8809 81.8499C55.6571 81.8499 53.9099 81.5937 52.6543 81.0384C51.5759 80.6069 50.6032 79.953 49.8013 79.1203C49.2145 78.4851 48.8057 77.7098 48.616 76.8704C48.4789 76.2887 48.3921 75.6964 48.3565 75.1002V52.6059C48.355 52.4027 48.5204 52.2365 48.7262 52.2351H52.6973C52.9031 52.2365 53.0685 52.4027 53.067 52.6059V73.6651C53.0607 74.202 53.1358 74.7366 53.2899 75.2514C53.4041 75.6694 53.606 76.0585 53.8826 76.3941C54.2523 76.804 54.7259 77.1098 55.2542 77.2807C56.0361 77.562 56.8668 77.6872 57.698 77.6486C58.5653 77.6674 59.4291 77.5432 60.2549 77.2807C60.7817 77.1025 61.2627 76.8122 61.6632 76.4303C61.9797 76.1269 62.2095 75.746 62.329 75.3265C62.5168 74.7804 62.6046 74.2054 62.5885 73.6285V52.6059C62.587 52.4027 62.7524 52.2365 62.9582 52.2351H66.9292C67.1351 52.2365 67.3004 52.4027 67.299 52.6059L67.4087 74.1086H67.4053V74.1081ZM80.8973 52.2346H83.5669C83.7576 52.2327 83.9137 52.3834 83.9157 52.5717C83.9162 52.6078 83.9108 52.6435 83.8996 52.6781L83.0167 56.0983C82.9796 56.2514 82.8401 56.3593 82.6806 56.3578H80.8295C80.0066 56.3309 79.1867 56.4691 78.4194 56.7648C77.8848 56.9603 77.4028 57.2752 77.0112 57.6846C76.7146 58.0077 76.497 58.3934 76.3756 58.8124C76.2751 59.1731 76.2249 59.5454 76.2258 59.9191V81.4247C76.2258 81.6269 76.061 81.7911 75.8561 81.7926H71.8543C71.6485 81.7926 71.4817 81.6279 71.4817 81.4247V58.9838C71.5017 58.3862 71.5885 57.7924 71.7412 57.2136C71.9285 56.3718 72.3412 55.595 72.9358 54.9637C73.5679 54.2278 74.4937 53.6003 75.7917 53.0456C76.9326 52.5303 78.7106 52.2346 80.8973 52.2346ZM26.4147 52.2346C29.6404 52.2346 32.011 52.8621 33.5685 54.1166C35.0064 55.2883 35.8362 57.0349 35.8288 58.8755V75.0674C35.8015 75.8061 35.6762 76.5381 35.4562 77.2446C35.1884 78.0695 34.7182 78.8165 34.0875 79.4189C33.248 80.162 32.2637 80.7273 31.1949 81.0808C29.973 81.521 28.3785 81.7444 26.4513 81.7444C24.844 81.7767 23.2422 81.5523 21.7076 81.0808C20.633 80.7418 19.6467 80.1745 18.818 79.4189C18.1492 78.8473 17.6707 78.0893 17.4464 77.2446C17.2088 76.542 17.083 75.8076 17.0737 75.0674V72.4857C17.0698 71.1455 17.442 69.8303 18.1488 68.6856C18.8541 67.5607 19.934 66.7126 21.2032 66.2879C21.8691 66.0283 22.5749 65.8443 23.4636 65.513C24.2792 65.2115 25.1313 64.9611 25.9074 64.6654C26.6835 64.3698 27.3522 64.1497 27.9844 63.9267C28.6165 63.7037 28.9468 63.5949 29.0965 63.5227C29.2462 63.4504 29.4297 63.3387 29.6526 63.2212C29.9038 63.0589 30.1389 62.8745 30.355 62.6693C30.5823 62.4203 30.7657 62.1362 30.8988 61.828C31.0852 61.463 31.1744 61.0575 31.1583 60.6486V59.6113C31.1569 59.2164 31.0686 58.8264 30.8988 58.4686C30.7354 58.053 30.4672 57.6855 30.1199 57.4009C29.6945 57.0421 29.2043 56.7657 28.6751 56.5866C27.9331 56.3535 27.1556 56.2514 26.3781 56.2851C24.524 56.2851 23.3387 56.653 22.6329 57.4279C22.0573 58.1088 21.7198 58.9549 21.6705 59.8406C21.6642 60.0269 21.5057 60.1728 21.3169 60.1666C21.3159 60.1666 21.3145 60.1666 21.3135 60.1666H17.3698C17.1649 60.1651 17 60.0009 17 59.7987V58.8399C16.9971 57.9528 17.1732 57.0739 17.5195 56.2552C17.8932 55.4106 18.48 54.6742 19.2238 54.1171C20.0916 53.4549 21.0891 52.9777 22.1534 52.7147C23.5514 52.4007 24.9806 52.2399 26.4147 52.2346ZM31.1583 66.8041C31.1023 67.1417 30.8993 67.4383 30.6023 67.6156C30.3511 67.788 30.0765 67.9247 29.7867 68.0225C29.2306 68.2426 28.6014 68.4265 27.9722 68.65C27.3429 68.8729 26.7108 69.0935 26.1547 69.2775C25.4889 69.5337 24.8196 69.721 24.3006 69.9411C23.8451 70.1578 23.4109 70.4173 23.0056 70.7159C22.6417 71.0415 22.3393 71.4282 22.1134 71.8587C21.832 72.3928 21.6925 72.988 21.7071 73.59C21.7071 74.9533 22.0412 75.9853 22.709 76.6869C23.3748 77.3506 24.5967 77.7214 26.4142 77.7214C28.2317 77.7214 29.4901 77.3506 30.196 76.6508C30.9018 75.9511 31.1949 74.9167 31.1949 73.6352L31.1583 66.8104V66.8041ZM95.1293 52.2346C98.355 52.2346 100.726 52.8621 102.283 54.1166C103.721 55.2883 104.551 57.0349 104.543 58.8755V75.0674C104.517 75.8061 104.393 76.5381 104.174 77.2446C103.903 78.0691 103.432 78.816 102.802 79.4189C101.964 80.161 100.98 80.7264 99.9124 81.0808C98.6906 81.521 97.0931 81.7444 95.1654 81.7444C93.5581 81.7762 91.9563 81.5523 90.4217 81.0808C89.3471 80.7418 88.3608 80.1745 87.5321 79.4189C86.8643 78.8463 86.3863 78.0888 86.1605 77.2446C85.9239 76.542 85.799 75.8076 85.7907 75.0674V72.4857C85.7858 71.145 86.158 69.8298 86.8658 68.6856C87.5662 67.5635 88.6394 66.716 89.9022 66.2879C90.571 66.0283 91.2739 65.8443 92.1655 65.513C92.9811 65.2115 93.8332 64.9611 94.6093 64.6654C95.3854 64.3698 96.057 64.1497 96.6863 63.9267C97.3155 63.7037 97.6487 63.5949 97.7984 63.5227C97.9482 63.4504 98.1316 63.3387 98.3545 63.2212C98.6067 63.0608 98.8418 62.8759 99.0569 62.6693C99.2881 62.4213 99.4764 62.1372 99.6129 61.828C99.7993 61.463 99.8885 61.0575 99.8724 60.6486V59.6113C99.871 59.2164 99.7827 58.8264 99.6129 58.4686C99.4495 58.0539 99.1827 57.6865 98.8369 57.4009C98.4106 57.0421 97.9194 56.7657 97.3892 56.5866C96.6472 56.3535 95.8697 56.2514 95.0922 56.2851C93.2381 56.2851 92.0528 56.653 91.3504 57.4279C90.7739 58.1083 90.4354 58.9545 90.3851 59.8406C90.3822 60.0269 90.2271 60.1762 90.0378 60.1733C90.0305 60.1733 90.0227 60.1728 90.0154 60.1724H85.9741C85.7693 60.1709 85.6044 60.0067 85.6044 59.8044V58.8394C85.6015 57.9523 85.7775 57.0734 86.1239 56.2548C86.4868 55.4033 87.0755 54.6646 87.8282 54.1166C88.6959 53.4544 89.6934 52.9772 90.7578 52.7142C92.1948 52.4075 93.6596 52.2466 95.1293 52.2346ZM99.8363 66.8041C99.7803 67.1417 99.5773 67.4383 99.2803 67.6156C99.0291 67.788 98.7545 67.9247 98.4647 68.0225C97.9086 68.2426 97.2794 68.4265 96.6502 68.65C96.0209 68.8729 95.3888 69.0935 94.8327 69.2775C94.1669 69.5337 93.4976 69.721 92.9816 69.9411C92.5245 70.1573 92.0894 70.4169 91.6831 70.7159C91.3207 71.0419 91.0197 71.4291 90.7944 71.8587C90.5071 72.3918 90.3661 72.9894 90.3851 73.5928C90.3851 74.9562 90.7193 75.9882 91.387 76.6898C92.0528 77.3534 93.2777 77.7243 95.0922 77.7243C96.9067 77.7243 98.1681 77.3534 98.874 76.6537C99.5798 75.954 99.8729 74.9196 99.8729 73.6381L99.8363 66.8133V66.8041Z" fill="#334155"/>
<path d="M118.042 50.3496H116.768V83.0768H118.042V50.3496Z" fill="#334155"/>
<path d="M128.604 54.9761C128.604 54.8403 128.714 54.7175 128.866 54.7175H132.105C133.8 54.7175 135.192 56.078 135.192 57.7245C135.192 59.4114 133.8 60.7858 132.119 60.7858H130.396V63.9835C130.396 64.1193 130.272 64.2421 130.134 64.2421H128.866C128.714 64.2421 128.604 64.1198 128.604 63.9835V54.9761ZM131.994 59.1258C132.766 59.1258 133.414 58.5138 133.414 57.711C133.414 56.9626 132.766 56.3915 131.994 56.3915H130.395V59.1263H131.994V59.1258Z" fill="#334155"/>
<path d="M138.511 60.7993C139.062 60.7993 139.516 60.9491 139.516 60.9491C139.53 60.2552 139.31 60.0105 138.8 60.0105C138.29 60.0105 137.574 60.1194 137.257 60.2147C137.064 60.2691 136.967 60.1468 136.94 59.9696L136.816 59.2622C136.774 59.058 136.884 58.9626 137.009 58.9217C137.119 58.8812 138.001 58.6631 138.883 58.6631C140.605 58.6631 141.005 59.5477 141.005 61.0305V63.983C141.005 64.1188 140.881 64.2416 140.743 64.2416H140.247C140.151 64.2416 140.081 64.2007 140.013 64.0514L139.847 63.684C139.53 63.97 139.02 64.3779 138.166 64.3779C137.063 64.3779 136.305 63.6705 136.305 62.5137C136.306 61.5477 137.105 60.7993 138.511 60.7993ZM138.538 63.2212C138.979 63.2212 139.406 62.8537 139.489 62.6905V61.9421C139.489 61.9421 139.117 61.7789 138.717 61.7789C138.179 61.7789 137.821 62.0784 137.821 62.5137C137.822 62.9216 138.111 63.2212 138.538 63.2212Z" fill="#334155"/>
<path d="M143.14 59.0575C143.14 58.9077 143.264 58.7989 143.402 58.7989H143.926C144.05 58.7989 144.133 58.8673 144.174 58.9756L144.367 59.5063C144.56 59.2342 145.07 58.6626 145.924 58.6626C146.572 58.6626 147.151 58.8668 146.986 59.2068L146.476 60.0909C146.407 60.2133 146.269 60.2677 146.159 60.2133C146.117 60.1998 145.911 60.1319 145.759 60.1319C145.208 60.1319 144.877 60.4993 144.781 60.6895V63.9821C144.781 64.1728 144.657 64.2407 144.464 64.2407H143.402C143.265 64.2407 143.14 64.1183 143.14 63.9821V59.0575H143.14Z" fill="#334155"/>
<path d="M150.194 60.7993C150.745 60.7993 151.2 60.9491 151.2 60.9491C151.213 60.2552 150.993 60.0105 150.483 60.0105C149.973 60.0105 149.257 60.1194 148.94 60.2147C148.747 60.2691 148.65 60.1468 148.623 59.9696L148.499 59.2622C148.457 59.058 148.568 58.9626 148.692 58.9217C148.802 58.8812 149.684 58.6631 150.566 58.6631C152.288 58.6631 152.688 59.5477 152.688 61.0305V63.983C152.688 64.1188 152.564 64.2416 152.426 64.2416H151.93C151.834 64.2416 151.765 64.2007 151.696 64.0514L151.53 63.684C151.213 63.97 150.704 64.3779 149.849 64.3779C148.747 64.3779 147.989 63.6705 147.989 62.5137C147.989 61.5477 148.788 60.7993 150.194 60.7993ZM150.221 63.2212C150.662 63.2212 151.089 62.8537 151.172 62.6905V61.9421C151.172 61.9421 150.8 61.7789 150.4 61.7789C149.863 61.7789 149.505 62.0784 149.505 62.5137C149.505 62.9216 149.794 63.2212 150.221 63.2212Z" fill="#334155"/>
<path d="M128.604 69.1714C128.604 69.0356 128.715 68.9128 128.866 68.9128H134.475C134.627 68.9128 134.737 69.0352 134.737 69.1714V70.2873C134.737 70.4231 134.627 70.5459 134.475 70.5459H130.396V72.777H133.8C133.938 72.777 134.062 72.8993 134.062 73.0356V74.1649C134.062 74.3146 133.938 74.4235 133.8 74.4235H130.396V76.8049H134.475C134.627 76.8049 134.737 76.9272 134.737 77.0635V78.1793C134.737 78.3151 134.627 78.4379 134.475 78.4379H128.866C128.715 78.4379 128.604 78.3156 128.604 78.1793V69.1714Z" fill="#334155"/>
<path d="M136.581 73.2528C136.581 73.103 136.705 72.9942 136.843 72.9942H137.353C137.477 72.9942 137.56 73.0621 137.587 73.144L137.78 73.6607C138.014 73.4021 138.649 72.8579 139.627 72.8579C140.413 72.8579 140.964 73.1574 141.419 73.7016C141.653 73.4565 142.369 72.8579 143.362 72.8579C145.126 72.8579 145.774 74.1505 145.774 75.5793V78.1778C145.774 78.3136 145.663 78.4365 145.512 78.4365H144.395C144.243 78.4365 144.133 78.3141 144.133 78.1778V75.4844C144.133 74.777 143.789 74.3277 143.1 74.3277C142.3 74.3277 141.942 74.8993 141.942 74.8993C141.942 74.8993 141.955 75.1714 141.955 75.416V78.1783C141.955 78.3141 141.831 78.4369 141.693 78.4369H140.66C140.508 78.4369 140.398 78.3146 140.398 78.1783V75.4844C140.398 74.777 140.081 74.3277 139.378 74.3277C138.689 74.3277 138.358 74.8174 138.22 75.1849V78.1778C138.22 78.3136 138.096 78.4365 137.958 78.4365H136.841C136.704 78.4365 136.579 78.3141 136.579 78.1778V73.2528H136.581Z" fill="#334155"/>
<path d="M149.561 82.2597C149.561 82.4229 149.478 82.5183 149.23 82.5183H148.128C147.99 82.5183 147.866 82.3959 147.866 82.2597V73.2528C147.866 73.103 147.99 72.9942 148.128 72.9942H148.665C148.761 72.9942 148.858 73.0486 148.899 73.1575L149.078 73.6063C149.285 73.3342 149.96 72.8579 150.856 72.8579C152.372 72.8579 153.516 74.1505 153.516 75.7151C153.516 77.3206 152.276 78.5723 150.788 78.5723C150.25 78.5723 149.754 78.382 149.561 78.2727V82.2597ZM150.567 77.1035C151.338 77.1035 151.903 76.4774 151.903 75.7156C151.903 74.9537 151.38 74.3277 150.622 74.3277C149.919 74.3277 149.575 74.8718 149.492 75.1574V76.7904C149.492 76.7904 149.877 77.1035 150.567 77.1035Z" fill="#334155"/>
<path d="M155.305 73.2528C155.305 73.103 155.429 72.9942 155.567 72.9942H156.091C156.215 72.9942 156.298 73.0621 156.34 73.1709L156.533 73.7016C156.726 73.4295 157.236 72.8579 158.09 72.8579C158.737 72.8579 159.316 73.0621 159.151 73.4021L158.641 74.2863C158.573 74.4086 158.435 74.463 158.324 74.4086C158.283 74.3951 158.076 74.3272 157.925 74.3272C157.374 74.3272 157.043 74.6946 156.946 74.8849V78.1774C156.946 78.3681 156.822 78.436 156.629 78.436H155.568C155.43 78.436 155.306 78.3137 155.306 78.1774V73.2528H155.305Z" fill="#334155"/>
<path d="M162.912 72.8584C164.331 72.8584 165.489 73.9198 165.489 75.3891C165.489 75.4844 165.475 75.6612 165.461 75.7565C165.447 75.8923 165.323 75.9877 165.199 75.9877H161.671C161.713 76.5453 162.195 77.1714 162.995 77.1714C163.421 77.1714 163.821 77.0081 164.07 76.8309C164.207 76.7495 164.332 76.7221 164.428 76.8309L164.993 77.4704C165.089 77.5658 165.116 77.7155 164.979 77.8244C164.524 78.2462 163.821 78.5727 162.925 78.5727C161.272 78.5727 160.101 77.2802 160.101 75.7156C160.101 74.1784 161.272 72.8584 162.912 72.8584ZM163.877 75.0351C163.835 74.5319 163.394 74.11 162.871 74.11C162.32 74.11 161.865 74.5184 161.796 75.0351H163.877Z" fill="#334155"/>
<path d="M166.893 77.7834L167.265 77.049C167.32 76.9128 167.458 76.8858 167.582 76.9537C167.582 76.9537 168.202 77.2802 168.836 77.2802C169.112 77.2802 169.305 77.1714 169.305 76.9402C169.305 76.6951 169.112 76.5458 168.382 76.2597C167.321 75.8514 166.824 75.2937 166.824 74.464C166.824 73.6342 167.444 72.8584 168.85 72.8584C169.663 72.8584 170.256 73.0896 170.545 73.2803C170.669 73.3616 170.738 73.5114 170.669 73.6477L170.324 74.3416C170.256 74.464 170.104 74.4774 169.994 74.437C169.994 74.437 169.374 74.1509 168.85 74.1509C168.519 74.1509 168.382 74.2867 168.382 74.464C168.382 74.7091 168.63 74.7905 169.14 74.9947C170.201 75.4025 171 75.8514 171 76.9128C171 77.8109 170.201 78.5727 168.809 78.5727C167.899 78.5727 167.265 78.2872 166.976 78.0695C166.893 78.0011 166.837 77.8923 166.893 77.7834Z" fill="#334155"/>
<path d="M174.567 74.9947C175.119 74.9947 175.573 75.1444 175.573 75.1444C175.587 74.4505 175.366 74.2058 174.857 74.2058C174.347 74.2058 173.63 74.3147 173.313 74.41C173.121 74.4644 173.024 74.3421 172.996 74.1649L172.872 73.4575C172.831 73.2533 172.941 73.1579 173.066 73.117C173.176 73.0766 174.058 72.8584 174.94 72.8584C176.662 72.8584 177.061 73.743 177.061 75.2258V78.1783C177.061 78.3141 176.938 78.4369 176.8 78.4369H176.303C176.207 78.4369 176.138 78.396 176.069 78.2462L175.904 77.8788C175.587 78.1649 175.077 78.5727 174.223 78.5727C173.12 78.5727 172.362 77.8653 172.362 76.7086C172.363 75.743 173.162 74.9947 174.567 74.9947ZM174.595 77.4165C175.036 77.4165 175.463 77.049 175.545 76.8858V76.1374C175.545 76.1374 175.173 75.9742 174.774 75.9742C174.236 75.9742 173.878 76.2737 173.878 76.7091C173.878 77.1169 174.167 77.4165 174.595 77.4165Z" fill="#334155"/>
<path d="M178.893 77.7834L179.265 77.049C179.32 76.9128 179.458 76.8858 179.582 76.9537C179.582 76.9537 180.202 77.2802 180.836 77.2802C181.112 77.2802 181.305 77.1714 181.305 76.9402C181.305 76.6951 181.112 76.5458 180.382 76.2597C179.32 75.8514 178.824 75.2937 178.824 74.464C178.824 73.6342 179.444 72.8584 180.85 72.8584C181.663 72.8584 182.256 73.0896 182.545 73.2803C182.669 73.3616 182.738 73.5114 182.669 73.6477L182.325 74.3416C182.256 74.464 182.104 74.4774 181.994 74.437C181.994 74.437 181.374 74.1509 180.85 74.1509C180.519 74.1509 180.382 74.2867 180.382 74.464C180.382 74.7091 180.63 74.7905 181.14 74.9947C182.201 75.4025 183 75.8514 183 76.9128C183 77.8109 182.201 78.5727 180.809 78.5727C179.899 78.5727 179.265 78.2872 178.976 78.0695C178.893 78.0011 178.838 77.8923 178.893 77.7834Z" fill="#334155"/>
</svg>
