<svg width="200" height="125" viewBox="0 0 200 125" fill="none" xmlns="http://www.w3.org/2000/svg">
<path d="M67.2457 30.083H73.5615C73.8939 30.083 74.1709 30.36 74.1709 30.6924V94.1827C74.1709 94.5151 73.8939 94.7922 73.5615 94.7922H67.2457C66.9133 94.7922 66.6363 94.5151 66.6363 94.1827V30.6924C66.6363 30.36 66.9133 30.083 67.2457 30.083ZM110.791 82.3268V83.9334C110.791 84.6536 110.681 85.5955 110.404 86.8143C110.182 87.9777 109.573 89.1966 108.52 90.36C107.523 91.5234 106.027 92.5761 103.977 93.4625C101.927 94.2935 99.1571 94.7367 95.6114 94.7367C92.0657 94.7367 89.2956 94.2935 87.2457 93.4625C85.1959 92.6315 83.7554 91.5789 82.7028 90.36C81.7056 89.1966 81.0407 87.9777 80.8191 86.7589C80.5975 85.5401 80.4313 84.6536 80.4313 83.9334V82.9916V47.7561C80.4313 47.4237 80.7083 47.1467 81.0407 47.1467H87.3565C87.6889 47.1467 87.9659 47.4237 87.9659 47.7561V81.6066C87.9659 82.7146 88.1321 83.5456 88.2984 84.155C88.4646 84.7645 88.797 85.4293 89.2402 85.9833C89.7388 86.5927 90.459 87.0359 91.4562 87.4237C92.3981 87.8115 93.7277 88.0331 95.3898 88.0331C97.1072 88.0331 98.4923 87.8115 99.4895 87.4237C100.487 87.0359 101.262 86.5927 101.761 86.0387C102.315 85.4847 102.647 84.9307 102.814 84.2658C102.98 83.601 103.201 83.1024 103.201 81.5512V47.7561C103.201 47.4237 103.478 47.1467 103.811 47.1467H110.127C110.459 47.1467 110.736 47.4237 110.736 47.7561L110.791 82.3268ZM132.398 47.2021H136.664C137.052 47.2021 137.329 47.5899 137.218 47.9223L135.778 53.4625C135.722 53.7395 135.445 53.9057 135.224 53.9057H132.232C130.625 53.9057 129.351 54.1273 128.354 54.5705C127.412 55.0138 126.581 55.457 126.082 56.0664C125.528 56.6758 125.251 57.2298 125.085 57.8392C124.919 58.5041 124.863 59.0581 124.863 59.6121V60.3877V94.1827C124.863 94.5151 124.586 94.7922 124.254 94.7922H117.883C117.55 94.7922 117.273 94.5151 117.273 94.1827V60.1107V58.0608C117.273 57.396 117.384 56.4542 117.661 55.2354C117.883 54.0165 118.492 52.8531 119.545 51.6343C120.542 50.4708 122.038 49.4182 124.088 48.5318C126.027 47.6453 128.852 47.2021 132.398 47.2021ZM45.2513 47.2021C50.4036 47.2021 54.2263 48.1994 56.664 50.2492C59.0463 52.2991 60.2651 54.8476 60.2651 57.8946V62.0498V81.3849V83.9334C60.2651 84.9861 60.0435 86.1495 59.6557 87.4237C59.2679 88.698 58.5477 89.8614 57.4396 90.914C56.3316 91.9667 54.7803 92.8531 52.8413 93.5733C50.9022 94.2935 48.3538 94.6259 45.2513 94.6259C42.0934 94.6259 39.6003 94.2381 37.6612 93.5733C35.7222 92.9085 34.1709 91.9667 33.0629 90.914C31.9549 89.8614 31.1792 88.698 30.8468 87.4237C30.459 86.1495 30.2374 84.9861 30.2374 83.9334V79.7783C30.2374 77.5622 30.8468 75.5124 31.9549 73.6841C33.1183 71.8559 34.7249 70.5262 36.8302 69.806C37.8828 69.4182 39.0463 69.0858 40.4313 68.5872C41.761 68.0886 43.0906 67.7007 44.3648 67.2021C45.6391 66.7589 46.6917 66.3711 47.6889 66.0387C48.6308 65.6509 49.2402 65.4847 49.4618 65.3739C49.6834 65.2631 50.0158 65.0969 50.3482 64.8753C50.736 64.6536 51.0684 64.3212 51.4562 63.9888C51.8441 63.5456 52.1211 63.1024 52.3427 62.6038C52.6197 62.0498 52.7305 61.4404 52.7305 60.7201V59.0581C52.7305 58.4487 52.6197 57.8946 52.3427 57.2298C52.1211 56.565 51.6779 56.0664 51.1238 55.5124C50.5144 54.9584 49.7388 54.5705 48.797 54.2381C47.8551 53.9057 46.6363 53.7395 45.1405 53.7395C42.2042 53.7395 40.2651 54.3489 39.1571 55.5678C38.2706 56.6204 37.7166 57.8946 37.6058 59.3905C37.6058 59.7229 37.3288 59.9445 36.9964 59.9445H30.7914C30.459 59.9445 30.182 59.6675 30.182 59.3351V57.7838C30.182 56.288 30.459 54.903 31.013 53.6287C31.567 52.3545 32.4535 51.191 33.7277 50.1938C34.9465 49.252 36.4978 48.421 38.4369 47.9223C40.3205 47.5345 42.592 47.2021 45.2513 47.2021ZM52.8413 70.5816C52.7305 71.191 52.3981 71.5789 51.9549 71.9113C51.4562 72.2437 51.0684 72.4099 50.6252 72.5761C49.7388 72.9085 48.7416 73.2409 47.7443 73.5733C46.7471 73.9611 45.7499 74.2935 44.8634 74.5705C43.8108 74.9584 42.7582 75.2908 41.8718 75.6232C41.1515 75.9556 40.4867 76.3434 39.8219 76.842C39.2679 77.3406 38.8247 77.8946 38.3815 78.6703C37.9382 79.4459 37.7166 80.3323 37.7166 81.4403C37.7166 83.6564 38.2706 85.3185 39.3233 86.4265C40.3759 87.4791 42.3704 88.0886 45.2513 88.0886C48.1875 88.0886 50.182 87.4791 51.29 86.3711C52.3427 85.2077 52.8967 83.601 52.8967 81.4958L52.8413 70.5816ZM155.113 47.2021C160.265 47.2021 164.088 48.1994 166.526 50.2492C168.908 52.2991 170.127 54.8476 170.127 57.8946V62.0498V81.3849V83.9334C170.127 84.9861 169.905 86.1495 169.517 87.4237C169.129 88.698 168.409 89.8614 167.301 90.914C166.193 91.9667 164.642 92.8531 162.703 93.5733C160.764 94.2935 158.215 94.6259 155.113 94.6259C151.955 94.6259 149.462 94.2381 147.523 93.5733C145.584 92.9085 144.032 91.9667 142.924 90.914C141.816 89.8614 141.041 88.698 140.708 87.4237C140.321 86.1495 140.099 84.9861 140.099 83.9334V79.7783C140.099 77.5622 140.708 75.5124 141.816 73.6841C142.98 71.8559 144.586 70.5262 146.692 69.806C147.744 69.4182 148.908 69.0858 150.293 68.5872C151.622 68.0886 152.952 67.7007 154.226 67.2021C155.501 66.7589 156.553 66.3711 157.55 66.0387C158.492 65.6509 159.102 65.4847 159.323 65.3739C159.545 65.2631 159.877 65.0969 160.21 64.8753C160.598 64.6536 160.93 64.3212 161.318 63.9888C161.706 63.5456 161.983 63.1024 162.204 62.6038C162.481 62.0498 162.592 61.4404 162.592 60.7201V59.0581C162.592 58.4487 162.481 57.8946 162.204 57.2298C161.983 56.565 161.539 56.0664 160.985 55.5124C160.376 54.9584 159.6 54.5705 158.658 54.2381C157.717 53.9057 156.498 53.7395 155.002 53.7395C152.066 53.7395 150.127 54.3489 149.019 55.5678C148.132 56.6204 147.578 57.8946 147.467 59.3905C147.467 59.7229 147.19 59.9445 146.858 59.9445H140.487C140.154 59.9445 139.877 59.6675 139.877 59.3351V57.7838C139.877 56.288 140.154 54.903 140.708 53.6287C141.262 52.3545 142.149 51.191 143.423 50.1938C144.642 49.252 146.193 48.421 148.132 47.9223C150.182 47.5345 152.453 47.2021 155.113 47.2021ZM162.647 70.5816C162.537 71.191 162.204 71.5789 161.761 71.9113C161.262 72.2437 160.875 72.4099 160.431 72.5761C159.545 72.9085 158.548 73.2409 157.55 73.5733C156.553 73.9611 155.556 74.2935 154.67 74.5705C153.617 74.9584 152.564 75.2908 151.678 75.6232C150.958 75.9556 150.293 76.3434 149.628 76.842C149.074 77.3406 148.631 77.8946 148.188 78.6703C147.744 79.3905 147.523 80.3323 147.523 81.4403C147.523 83.6564 148.077 85.3185 149.129 86.4265C150.182 87.4791 152.176 88.0886 155.057 88.0886C157.994 88.0886 159.988 87.4791 161.096 86.3711C162.149 85.2077 162.703 83.601 162.703 81.4958L162.647 70.5816Z" fill="#334155"/>
</svg>
