<svg width="200" height="125" viewBox="0 0 200 125" fill="none" xmlns="http://www.w3.org/2000/svg">
<path d="M164.255 59.1632L174.226 49.6186L174.728 49.1666V46.2687H153.808V49.6186H170.047L159.547 59.6683V62.5397H165.128C169.174 62.5397 172.586 64.1615 172.586 68.5748C172.586 72.9882 169.042 75.5405 164.414 75.5405C159.785 75.5405 157.22 73.7326 154.681 71.9247C153.623 73.387 152.671 74.8493 152.671 74.8493C155.263 76.8964 158.172 78.8904 164.361 78.8904C171.132 78.8904 176.289 74.7961 176.289 68.3887C176.289 63.1512 172.269 59.1898 165.974 59.1898H164.255V59.1632Z" fill="#334155"/>
<path d="M96.945 46.2418H83.7211V78.385H87.3973V65.8361H96.945C104.721 65.8361 108 61.4759 108 56.0256C108 50.5754 104.694 46.2418 96.945 46.2418ZM97.9236 62.5128H87.3709V49.5917H97.9236C103.372 49.5917 104.245 54.0582 104.245 56.0522C104.245 58.0462 103.372 62.5128 97.9236 62.5128Z" fill="#334155"/>
<path d="M142.885 46.2421L130.402 71.8716L117.945 46.2421H113.554V78.4119H117.231V53.0748L129.37 78.4384H131.46L143.599 53.0748V78.4119H147.276V46.2421H142.885Z" fill="#334155"/>
<path fill-rule="evenodd" clip-rule="evenodd" d="M64.6256 38.8508H29.4498C26.276 38.8508 23.7106 41.4297 23.7106 44.6201V79.9803C23.7106 83.1707 26.276 85.7496 29.4498 85.7496H51.5338C55.2894 85.7496 59.1244 81.4957 59.1244 76.6038C59.1244 71.1004 53.8084 66.6338 48.3336 66.6338H40.8224V63.9486L55.0514 50.3628H33.6815V46.2153H61.9543V49.1398L61.4518 49.5918L48.122 62.4863C56.3209 62.4863 63.2767 69.2925 63.2767 76.657C63.2767 80.2728 61.9807 83.3036 59.9443 85.8028H64.5726C67.7464 85.8028 70.3119 83.2239 70.3119 80.0335V44.6733C70.3648 41.4563 67.7729 38.8508 64.6256 38.8508Z" fill="#334155"/>
</svg>
