<svg width="200" height="125" viewBox="0 0 200 125" fill="none" xmlns="http://www.w3.org/2000/svg">
<g clip-path="url(#clip0_1764_6735)">
<path d="M71.9927 42.5833H69.1952V80.611H71.9927V42.5833Z" fill="#334155"/>
<path d="M53.2145 60.7767H39.588V63.3814H53.2145V60.7767Z" fill="#334155"/>
<path d="M29.1662 42.5833V80.611H31.9637V45.1879H60.9184V42.5833H29.1662Z" fill="#334155"/>
<path d="M155.977 42.4128H133.726V80.4406H136.523V45.0175H155.77C162.539 45.0175 167.154 48.1691 167.154 54.1988V54.303C167.154 59.9551 162.423 63.6537 155.448 63.6537H146.643V66.2583H155.293C163.132 66.2583 169.951 62.13 169.951 54.1467V54.0426C169.951 46.7105 164.253 42.4128 155.99 42.4128" fill="#334155"/>
<path d="M117.483 63.6529L104.45 42.2689H101.768L78.5376 80.5701H81.4382L103.058 45.3684L114.325 63.666H117.496L117.483 63.6529Z" fill="#334155"/>
<path d="M121.765 70.6992H118.645L124.73 80.5838H127.785L121.765 70.6992Z" fill="#334155"/>
</g>
<defs>
<clipPath id="clip0_1764_6735">
<rect width="141" height="38.4545" fill="white" transform="translate(29 42.6924)"/>
</clipPath>
</defs>
</svg>
